<svg width="478" height="74" viewBox="0 0 478 74" fill="none" xmlns="http://www.w3.org/2000/svg" xmlns:xlink="http://www.w3.org/1999/xlink">
<path d="M48.681,-0.222L42.448,-0.222L0,72.001L40.39,72.001L45.975,60.6L51.849,72.001L93.476,72.001L48.681,-0.222ZM45.651,8.924L66.187,42.018L26.202,42.018L45.651,8.924ZM35.776,64.601L12.928,64.601L21.854,49.407L43.223,49.407L35.776,64.601ZM48.565,49.407L70.778,49.407L80.214,64.601L56.359,64.601L48.565,49.407Z" fill="#FFFFFF"/>
<path d="M130.051,71.03L120.731,71.03L141.544,22.014L151.315,22.014L172.568,71.03L162.798,71.03L157.259,57.651L140.92,57.651L144.042,49.777L153.905,49.777L146.204,31.368L130.051,71.03Z" fill="#FFFFFF"/>
<path d="M205.465,22.014L205.465,29.842L191.405,29.842L191.405,71.03L182.328,71.03L182.328,29.842L168.267,29.842L168.267,22.014L205.465,22.014Z" fill="#FFFFFF"/>
<path d="M226.025,71.03L226.025,22.014L245.22,22.014C261.408,22.014 269.522,29.722 269.56,45.14C269.56,62.384 261.447,71.003 245.22,70.995L226.025,71.03ZM245.22,63.144C255.395,63.144 260.479,57.154 260.472,45.175C260.472,34.953 255.388,29.842 245.22,29.842L235.114,29.842L235.114,63.144L245.22,63.144Z" fill="#FFFFFF"/>
<rect  x="277.273" y="22.014" width="9.077" height="49.016" fill="#FFFFFF"/>
<path d="M335.713,68.764C330.995,70.641 325.941,71.526 320.866,71.366C303.567,71.366 294.918,62.855 294.918,45.834C294.918,29.73 303.718,21.675 321.317,21.667C326.221,21.583 331.1,22.394 335.713,24.061L335.713,32.282C331.379,30.434 326.71,29.501 321.999,29.542C310.228,29.542 304.342,34.969 304.342,45.823C304.342,57.594 309.896,63.476 321.005,63.468C322.905,63.435 324.794,63.159 326.624,62.647L326.624,48.401L335.713,48.401L335.713,68.764Z" fill="#FFFFFF"/>
<rect  x="344.281" y="22.014" width="9.077" height="49.016" fill="#FFFFFF"/>
<path d="M395.691,22.014L395.691,29.842L381.642,29.842L381.642,71.03L372.553,71.03L372.553,29.842L358.458,29.842L358.458,22.014L395.691,22.014Z" fill="#FFFFFF"/>
<path d="M400.732,71.03L391.413,71.03L412.226,22.014L421.997,22.014L443.239,71.03L433.479,71.03L427.837,57.651L411.648,57.651L414.77,49.777L424.645,49.777L416.932,31.368L400.732,71.03Z" fill="#FFFFFF"/>
<path d="M458.317,22.014L458.317,63.144L477.778,63.144L477.778,71.03L449.228,71.03L449.228,22.014L458.317,22.014Z" fill="#FFFFFF"/>
</svg>
